# xmcd CD database file
# Copyright (C) 1996 Ti Kan
#
# Track frame offsets:
#  150
#  12105
#  23345
#  36912
#  48995
#  60175
#  72017
#  82680
#  93472
#  106077
#
# Disc length: 1577 seconds
#
# Revision: 1
# Processed by: cddbd v1.4b41PL1 Copyright (c) Steve Scherf et al.
# Submitted via: CDWizzard Release:4.12
#
DISCID=6006270a
DTITLE=Stonewall Jackson - Stonewall Jackson - American Originals
DYEAR=1900
DGENRE=
TTITLE0=Smoke Along the Track
TTITLE1=Life to Go
TTITLE2=Don't Be Angry
TTITLE3=A Wound Time Can't Erase
TTITLE4=Waterloo
TTITLE5=Me and You and a Dog Named Boo
TTITLE6=Life of a Poor Boy
TTITLE7=Mary Don't You Weep
TTITLE8=Leona
TTITLE9=Blues Plus Booze(Means I Lose)
EXTD=
EXTT0=
EXTT1=
EXTT2=
EXTT3=
EXTT4=
EXTT5=
EXTT6=
EXTT7=
EXTT8=
EXTT9=
PLAYORDER=
